<svg width="80" height="80" viewBox="0 0 100 100" fill="none" xmlns="http://www.w3.org/2000/svg">
  <defs>
    <!-- Gradients for light mode -->
    <linearGradient id="neuralGradientLight" x1="0%" y1="0%" x2="100%" y2="100%">
      <stop offset="0%" stop-color="#2563EB" />
      <stop offset="100%" stop-color="#06B6D4" />
    </linearGradient>
    
    <!-- Gradients for dark mode -->
    <linearGradient id="neuralGradientDark" x1="0%" y1="0%" x2="100%" y2="100%">
      <stop offset="0%" stop-color="#3B82F6" />
      <stop offset="100%" stop-color="#22D3EE" />
    </linearGradient>

    <!-- Radial gradient for flow paths -->
    <radialGradient id="flowRadial" cx="50%" cy="50%" r="50%">
      <stop offset="0%" stop-color="#22D3EE" stop-opacity="0.2" />
      <stop offset="70%" stop-color="#22D3EE" stop-opacity="0.6" />
      <stop offset="100%" stop-color="#22D3EE" stop-opacity="0.1" />
    </radialGradient>

    <!-- Subtle shadow for depth -->
    <filter id="shadow">
      <feDropShadow dx="0" dy="2" stdDeviation="3" flood-opacity="0.15"/>
    </filter>
  </defs>
  
  <!-- Neural Network "O" Symbol -->
  <g transform="translate(0, 0)">
    <!-- Circular flow path background -->
    <circle
      cx="50" cy="50" r="32"
      fill="none"
      stroke="url(#flowRadial)"
      stroke-width="6"
      opacity="1"
      stroke-dasharray="none"
    />
    
    <!-- Connection lines between nodes -->
    <g stroke="url(#neuralGradientDark)" 
       stroke-width="0.8" 
       opacity="0.6"
       fill="none">
      
      <!-- Outer to inner connections -->
      
        <line x1="85" y1="50" x2="68.47759065022574" y2="57.6536686473018" opacity="0.4"/>
        <line x1="85" y1="50" x2="57.6536686473018" y2="68.47759065022574" opacity="0.3"/>
        <line x1="80.31088913245536" y1="67.5" x2="57.6536686473018" y2="68.47759065022574" opacity="0.4"/>
        <line x1="80.31088913245536" y1="67.5" x2="42.34633135269821" y2="68.47759065022574" opacity="0.3"/>
        <line x1="67.5" y1="80.31088913245534" x2="42.34633135269821" y2="68.47759065022574" opacity="0.4"/>
        <line x1="67.5" y1="80.31088913245534" x2="31.522409349774264" y2="57.6536686473018" opacity="0.3"/>
        <line x1="50" y1="85" x2="31.522409349774264" y2="57.6536686473018" opacity="0.4"/>
        <line x1="50" y1="85" x2="31.52240934977426" y2="42.346331352698215" opacity="0.3"/>
        <line x1="32.50000000000001" y1="80.31088913245536" x2="31.52240934977426" y2="42.346331352698215" opacity="0.4"/>
        <line x1="32.50000000000001" y1="80.31088913245536" x2="42.34633135269821" y2="31.522409349774264" opacity="0.3"/>
        <line x1="19.689110867544645" y1="67.5" x2="42.34633135269821" y2="31.522409349774264" opacity="0.4"/>
        <line x1="19.689110867544645" y1="67.5" x2="57.6536686473018" y2="31.522409349774268" opacity="0.3"/>
        <line x1="15" y1="50.00000000000001" x2="57.6536686473018" y2="31.522409349774268" opacity="0.4"/>
        <line x1="15" y1="50.00000000000001" x2="68.47759065022574" y2="42.34633135269821" opacity="0.3"/>
        <line x1="19.68911086754465" y1="32.5" x2="68.47759065022574" y2="42.34633135269821" opacity="0.4"/>
        <line x1="19.68911086754465" y1="32.5" x2="68.47759065022574" y2="57.6536686473018" opacity="0.3"/>
        <line x1="32.499999999999986" y1="19.689110867544656" x2="68.47759065022574" y2="57.6536686473018" opacity="0.4"/>
        <line x1="32.499999999999986" y1="19.689110867544656" x2="57.6536686473018" y2="68.47759065022574" opacity="0.3"/>
        <line x1="49.99999999999999" y1="15" x2="57.6536686473018" y2="68.47759065022574" opacity="0.4"/>
        <line x1="49.99999999999999" y1="15" x2="42.34633135269821" y2="68.47759065022574" opacity="0.3"/>
        <line x1="67.5" y1="19.68911086754465" x2="42.34633135269821" y2="68.47759065022574" opacity="0.4"/>
        <line x1="67.5" y1="19.68911086754465" x2="31.522409349774264" y2="57.6536686473018" opacity="0.3"/>
        <line x1="80.31088913245534" y1="32.499999999999986" x2="31.522409349774264" y2="57.6536686473018" opacity="0.4"/>
        <line x1="80.31088913245534" y1="32.499999999999986" x2="31.52240934977426" y2="42.346331352698215" opacity="0.3"/>
      
      <!-- Inner to center connections -->
      
        <line x1="68.47759065022574" y1="57.6536686473018" x2="50" y2="50" opacity="0.5"/>
        <line x1="57.6536686473018" y1="68.47759065022574" x2="50" y2="50" opacity="0.5"/>
        <line x1="42.34633135269821" y1="68.47759065022574" x2="50" y2="50" opacity="0.5"/>
        <line x1="31.522409349774264" y1="57.6536686473018" x2="50" y2="50" opacity="0.5"/>
        <line x1="31.52240934977426" y1="42.346331352698215" x2="50" y2="50" opacity="0.5"/>
        <line x1="42.34633135269821" y1="31.522409349774264" x2="50" y2="50" opacity="0.5"/>
        <line x1="57.6536686473018" y1="31.522409349774268" x2="50" y2="50" opacity="0.5"/>
        <line x1="68.47759065022574" y1="42.34633135269821" x2="50" y2="50" opacity="0.5"/>
      
      <!-- Outer ring connections -->
      <line x1="85" y1="50" x2="80.31088913245536" y2="67.5" opacity="0.4"/><line x1="80.31088913245536" y1="67.5" x2="67.5" y2="80.31088913245534" opacity="0.4"/><line x1="67.5" y1="80.31088913245534" x2="50" y2="85" opacity="0.4"/><line x1="50" y1="85" x2="32.50000000000001" y2="80.31088913245536" opacity="0.4"/><line x1="32.50000000000001" y1="80.31088913245536" x2="19.689110867544645" y2="67.5" opacity="0.4"/><line x1="19.689110867544645" y1="67.5" x2="15" y2="50.00000000000001" opacity="0.4"/><line x1="15" y1="50.00000000000001" x2="19.68911086754465" y2="32.5" opacity="0.4"/><line x1="19.68911086754465" y1="32.5" x2="32.499999999999986" y2="19.689110867544656" opacity="0.4"/><line x1="32.499999999999986" y1="19.689110867544656" x2="49.99999999999999" y2="15" opacity="0.4"/><line x1="49.99999999999999" y1="15" x2="67.5" y2="19.68911086754465" opacity="0.4"/><line x1="67.5" y1="19.68911086754465" x2="80.31088913245534" y2="32.499999999999986" opacity="0.4"/><line x1="80.31088913245534" y1="32.499999999999986" x2="85" y2="50" opacity="0.4"/>
      
      <!-- Inner ring connections -->
      <line x1="68.47759065022574" y1="57.6536686473018" x2="57.6536686473018" y2="68.47759065022574" opacity="0.3"/><line x1="57.6536686473018" y1="68.47759065022574" x2="42.34633135269821" y2="68.47759065022574" opacity="0.3"/><line x1="42.34633135269821" y1="68.47759065022574" x2="31.522409349774264" y2="57.6536686473018" opacity="0.3"/><line x1="31.522409349774264" y1="57.6536686473018" x2="31.52240934977426" y2="42.346331352698215" opacity="0.3"/><line x1="31.52240934977426" y1="42.346331352698215" x2="42.34633135269821" y2="31.522409349774264" opacity="0.3"/><line x1="42.34633135269821" y1="31.522409349774264" x2="57.6536686473018" y2="31.522409349774268" opacity="0.3"/><line x1="57.6536686473018" y1="31.522409349774268" x2="68.47759065022574" y2="42.34633135269821" opacity="0.3"/><line x1="68.47759065022574" y1="42.34633135269821" x2="68.47759065022574" y2="57.6536686473018" opacity="0.3"/>
      
      <!-- Cross connections for complexity -->
      <line x1="85" y1="50" x2="15" y2="50.00000000000001" opacity="0.15"/><line x1="50" y1="85" x2="49.99999999999999" y2="15" opacity="0.15"/><line x1="15" y1="50.00000000000001" x2="85" y2="50" opacity="0.15"/><line x1="49.99999999999999" y1="15" x2="50" y2="85" opacity="0.15"/>
      
      <!-- Connection arcs between nodes -->
      <path d="M 50 18 A 32 32 0 0 1 74 50" fill="none" stroke="#22D3EE" stroke-width="1" opacity="0.3"/>
      <path d="M 74 50 A 32 32 0 0 1 50 82" fill="none" stroke="#22D3EE" stroke-width="1" opacity="0.3"/>
      <path d="M 50 82 A 32 32 0 0 1 26 50" fill="none" stroke="#22D3EE" stroke-width="1" opacity="0.3"/>
      <path d="M 26 50 A 32 32 0 0 1 50 18" fill="none" stroke="#22D3EE" stroke-width="1" opacity="0.3"/>
    </g>
    
    <!-- Outer ring nodes -->
    
      <circle cx="85" cy="50" r="2.5"
        fill="url(#neuralGradientDark)"
        filter="url(#shadow)"
        opacity="0.9"/>
    
      <circle cx="80.31088913245536" cy="67.5" r="2.5"
        fill="url(#neuralGradientDark)"
        filter="url(#shadow)"
        opacity="0.9"/>
    
      <circle cx="67.5" cy="80.31088913245534" r="2.5"
        fill="url(#neuralGradientDark)"
        filter="url(#shadow)"
        opacity="0.9"/>
    
      <circle cx="50" cy="85" r="2.5"
        fill="url(#neuralGradientDark)"
        filter="url(#shadow)"
        opacity="0.9"/>
    
      <circle cx="32.50000000000001" cy="80.31088913245536" r="2.5"
        fill="url(#neuralGradientDark)"
        filter="url(#shadow)"
        opacity="0.9"/>
    
      <circle cx="19.689110867544645" cy="67.5" r="2.5"
        fill="url(#neuralGradientDark)"
        filter="url(#shadow)"
        opacity="0.9"/>
    
      <circle cx="15" cy="50.00000000000001" r="2.5"
        fill="url(#neuralGradientDark)"
        filter="url(#shadow)"
        opacity="0.9"/>
    
      <circle cx="19.68911086754465" cy="32.5" r="2.5"
        fill="url(#neuralGradientDark)"
        filter="url(#shadow)"
        opacity="0.9"/>
    
      <circle cx="32.499999999999986" cy="19.689110867544656" r="2.5"
        fill="url(#neuralGradientDark)"
        filter="url(#shadow)"
        opacity="0.9"/>
    
      <circle cx="49.99999999999999" cy="15" r="2.5"
        fill="url(#neuralGradientDark)"
        filter="url(#shadow)"
        opacity="0.9"/>
    
      <circle cx="67.5" cy="19.68911086754465" r="2.5"
        fill="url(#neuralGradientDark)"
        filter="url(#shadow)"
        opacity="0.9"/>
    
      <circle cx="80.31088913245534" cy="32.499999999999986" r="2.5"
        fill="url(#neuralGradientDark)"
        filter="url(#shadow)"
        opacity="0.9"/>
    
    
    <!-- Inner ring nodes -->
    
      <circle cx="68.47759065022574" cy="57.6536686473018" r="2"
        fill="#22D3EE"
        opacity="0.8"/>
    
      <circle cx="57.6536686473018" cy="68.47759065022574" r="2"
        fill="#22D3EE"
        opacity="0.8"/>
    
      <circle cx="42.34633135269821" cy="68.47759065022574" r="2"
        fill="#22D3EE"
        opacity="0.8"/>
    
      <circle cx="31.522409349774264" cy="57.6536686473018" r="2"
        fill="#22D3EE"
        opacity="0.8"/>
    
      <circle cx="31.52240934977426" cy="42.346331352698215" r="2"
        fill="#22D3EE"
        opacity="0.8"/>
    
      <circle cx="42.34633135269821" cy="31.522409349774264" r="2"
        fill="#22D3EE"
        opacity="0.8"/>
    
      <circle cx="57.6536686473018" cy="31.522409349774268" r="2"
        fill="#22D3EE"
        opacity="0.8"/>
    
      <circle cx="68.47759065022574" cy="42.34633135269821" r="2"
        fill="#22D3EE"
        opacity="0.8"/>
    
    
    <!-- Center core -->
    <circle cx="50" cy="50" r="4"
      fill="url(#neuralGradientDark)"
      filter="url(#shadow)"
      opacity="0.4"/>
  </g>
  
  
</svg>